<?xml version="1.0" encoding="UTF-8"?>
<svg version="1.1" xmlns="http://www.w3.org/2000/svg" width="256" height="256">
<path d="M0 0 C1.75715716 -0.00542939 3.51430976 -0.0125566 5.27145386 -0.02124023 C10.01530631 -0.03937948 14.75880838 -0.03244512 19.50266647 -0.01972389 C24.48363897 -0.00954728 29.46458287 -0.01900246 34.44555664 -0.02526855 C42.80783434 -0.03253144 51.1699704 -0.02299301 59.53222656 -0.00390625 C69.179329 0.01785984 78.8260932 0.01080751 88.47318745 -0.01121187 C96.77842495 -0.02940468 105.08356105 -0.03190526 113.38881207 -0.0214572 C118.33935268 -0.01524357 123.28973467 -0.0143277 128.24026489 -0.02760315 C132.89604532 -0.03921767 137.55139263 -0.03103429 142.20712662 -0.00802612 C143.90859384 -0.00276881 145.61009795 -0.00420134 147.31155014 -0.01307678 C162.54410217 -0.08516741 175.67952537 3.07471012 187.15234375 13.76757812 C198.62966697 26.0820708 201.00429027 39.94153285 200.91992188 56.11523438 C200.92535126 57.87239154 200.93247848 59.62954414 200.94116211 61.38668823 C200.95930136 66.13054069 200.952367 70.87404276 200.93964577 75.61790085 C200.92946915 80.59887335 200.93892433 85.57981725 200.94519043 90.56079102 C200.95245331 98.92306871 200.94291488 107.28520478 200.92382812 115.64746094 C200.90206203 125.29456337 200.90911436 134.94132757 200.93113375 144.58842182 C200.94932655 152.89365933 200.95182713 161.19879543 200.94137907 169.50404644 C200.93516544 174.45458705 200.93424958 179.40496905 200.94752502 184.35549927 C200.95913955 189.0112797 200.95095617 193.66662701 200.927948 198.32236099 C200.92269069 200.02382821 200.92412321 201.72533232 200.93299866 203.42678452 C201.00508928 218.65933655 197.84521176 231.79475975 187.15234375 243.26757812 C174.83785107 254.74490134 160.97838903 257.11952464 144.8046875 257.03515625 C143.04753034 257.04058564 141.29037774 257.04771285 139.53323364 257.05639648 C134.78938119 257.07453573 130.04587912 257.06760137 125.30202103 257.05488014 C120.32104853 257.04470353 115.34010463 257.05415871 110.35913086 257.0604248 C101.99685316 257.06768769 93.6347171 257.05814926 85.27246094 257.0390625 C75.6253585 257.01729641 65.9785943 257.02434874 56.33150005 257.04636812 C48.02626255 257.06456093 39.72112645 257.06706151 31.41587543 257.05661345 C26.46533482 257.05039982 21.51495283 257.04948395 16.56442261 257.0627594 C11.90864218 257.07437392 7.25329487 257.06619054 2.59756088 257.04318237 C0.89609366 257.03792506 -0.80541045 257.03935759 -2.50686264 257.04823303 C-17.73941467 257.12032366 -30.87483787 253.96044613 -42.34765625 243.26757812 C-53.82497947 230.95308545 -56.19960277 217.0936234 -56.11523438 200.91992188 C-56.12066376 199.16276471 -56.12779098 197.40561211 -56.13647461 195.64846802 C-56.15461386 190.90461556 -56.1476795 186.16111349 -56.13495827 181.4172554 C-56.12478165 176.4362829 -56.13423683 171.455339 -56.14050293 166.47436523 C-56.14776581 158.11208754 -56.13822738 149.74995147 -56.11914062 141.38769531 C-56.09737453 131.74059288 -56.10442686 122.09382868 -56.12644625 112.44673443 C-56.14463905 104.14149692 -56.14713963 95.83636082 -56.13669157 87.53110981 C-56.13047794 82.5805692 -56.12956208 77.6301872 -56.14283752 72.67965698 C-56.15445205 68.02387655 -56.14626867 63.36852924 -56.1232605 58.71279526 C-56.11800319 57.01132804 -56.11943571 55.30982393 -56.12831116 53.60837173 C-56.20040178 38.3758197 -53.04052426 25.2403965 -42.34765625 13.76757812 C-30.03316357 2.29025491 -16.17370153 -0.08436839 0 0 Z " fill="#162032" transform="translate(55.59765625,-0.517578125)"/>
<path d="M0 0 C52.5752809 0 52.5752809 0 62 9 C69.47528708 17.32248628 70.56705235 25.04516745 70.3125 35.85546875 C69.86958477 44.08446469 65.9883113 50.46702112 60 56 C51.1896533 62.89108031 42.31939879 63.29192956 31.5 63.125 C27.705 63.08375 23.91 63.0425 20 63 C20 72.24 20 81.48 20 91 C13.4 91 6.8 91 0 91 C0 60.97 0 30.94 0 0 Z " fill="#FAFBFB" transform="translate(146,93)"/>
<path d="M0 0 C5.89565693 3.93859239 9.75514506 8.49933944 11.8828125 15.2578125 C11.8828125 16.9078125 11.8828125 18.5578125 11.8828125 20.2578125 C8.5828125 20.2578125 5.2828125 20.2578125 1.8828125 20.2578125 C1.3259375 19.0203125 0.7690625 17.7828125 0.1953125 16.5078125 C-2.0958153 11.9416916 -4.70021527 9.44058614 -9.3203125 7.1796875 C-15.99319969 4.98024424 -25.35546306 4.93973054 -31.8046875 7.9453125 C-35.68486828 10.37464308 -38.47891313 12.82439147 -39.6796875 17.40234375 C-40.23858083 20.91289249 -40.31643393 23.58343995 -39.3046875 27.0078125 C-33.11619613 33.37311791 -23.86506023 35.3817384 -15.4921875 37.3203125 C4.43440227 41.9759359 4.43440227 41.9759359 10.0390625 49.890625 C14.01216605 56.44624586 15.06076679 63.25150676 13.3046875 70.71484375 C10.59115188 78.74444232 5.67651537 83.85757089 -1.87890625 87.640625 C-12.18902104 91.57746456 -24.62015473 91.87747897 -35.1171875 88.2578125 C-42.95380063 84.55239484 -47.97610627 80.46614456 -51.9296875 72.6953125 C-53.1171875 69.2578125 -53.1171875 69.2578125 -53.1171875 64.2578125 C-49.8171875 64.2578125 -46.5171875 64.2578125 -43.1171875 64.2578125 C-42.6221875 65.6396875 -42.1271875 67.0215625 -41.6171875 68.4453125 C-39.32468233 73.66302139 -36.20634475 75.91700917 -31.1171875 78.2578125 C-27.34744174 79.51439442 -23.79546558 79.48095248 -19.8671875 79.5078125 C-19.12855469 79.5284375 -18.38992187 79.5490625 -17.62890625 79.5703125 C-10.96901715 79.61729584 -6.33263418 78.23244976 -1.2421875 73.6953125 C2.20132576 69.74540023 2.2994983 66.91864102 2.2109375 61.796875 C1.81404989 58.72572091 0.81294002 56.67029338 -1.41796875 54.48828125 C-8.38668711 49.44196796 -17.4667649 48.05466382 -25.72094727 46.27124023 C-35.29194247 44.0759547 -43.22054369 39.96361236 -48.8671875 31.6953125 C-51.7850944 26.00539405 -52.19821944 19.27516093 -50.5390625 13.109375 C-47.16561297 5.35044108 -40.46019287 -0.10640277 -32.7421875 -3.2421875 C-22.13453779 -6.58574236 -9.78789396 -5.34965864 0 0 Z " fill="#DCE2EA" transform="translate(108.1171875,95.7421875)"/>
<path d="M0 0 C4.2384375 -0.0928125 4.2384375 -0.0928125 8.5625 -0.1875 C9.43849854 -0.21481201 10.31449707 -0.24212402 11.21704102 -0.27026367 C16.5906322 -0.32670003 20.25139293 0.44072518 25 3 C29.53061211 7.88829201 30.28823492 10.96474337 30.22265625 17.45703125 C29.85688196 21.63455864 28.15364051 24.46181265 25.6875 27.75 C20.56163192 31.54693932 14.68620147 31.24968883 8.625 31.125 C5.77875 31.08375 2.9325 31.0425 0 31 C0 20.77 0 10.54 0 0 Z " fill="#172033" transform="translate(166,109)"/>
</svg>
